<svg version="1.1" id="Layer_1" xmlns="http://www.w3.org/2000/svg" xmlns:xlink="http://www.w3.org/1999/xlink" x="0px" y="0px"
	 width="100%" viewBox="0 0 4320 4320" enable-background="new 0 0 4320 4320" xml:space="preserve">
<path fill="#1F1D2B" opacity="1.000000" stroke="none" 
	d="
M3988.000000,4324.000000 
	C2658.666748,4324.000000 1331.333374,4324.000000 4.000000,4324.000000 
	C4.000000,2884.000000 4.000000,1444.000000 4.000000,4.000001 
	C1444.000000,4.000000 2884.000000,4.000000 4324.000000,4.000000 
	C4324.000000,1444.000000 4324.000000,2884.000000 4324.000000,4324.000000 
	C4212.666504,4324.000000 4101.333496,4324.000000 3988.000000,4324.000000 
M711.402954,2320.930420 
	C718.314331,2303.998779 720.469666,2286.272461 720.445740,2268.134033 
	C720.379822,2218.186523 720.422546,2168.239258 720.382263,2118.291748 
	C720.377991,2112.966309 720.309265,2107.626709 719.931458,2102.317627 
	C717.203613,2063.992188 700.381592,2033.708862 668.163757,2012.366455 
	C653.596069,2002.716309 637.858276,1995.234985 620.697083,1992.088745 
	C605.047424,1989.219849 589.079468,1986.908447 573.212036,1986.631592 
	C529.271423,1985.864868 485.309143,1986.104248 441.357330,1986.325073 
	C421.942474,1986.422607 420.407593,1988.452026 420.113861,2008.690308 
	C420.055878,2012.685425 420.094818,2016.681763 420.094574,2020.677612 
	C420.089325,2107.253174 420.082489,2193.828857 420.081451,2280.404541 
	C420.081116,2311.039062 420.005096,2341.673828 420.169373,2372.307617 
	C420.208008,2379.512207 418.888702,2387.035400 423.369934,2393.952881 
	C430.460388,2398.437500 438.652466,2396.986328 446.484589,2397.010254 
	C491.103821,2397.146729 535.723816,2397.071777 580.343445,2397.000488 
	C586.997986,2396.989990 593.720764,2397.163330 600.295349,2396.331055 
	C648.793152,2390.188965 687.481262,2369.013184 711.402954,2320.930420 
M1197.493774,2399.388916 
	C1202.066772,2398.469971 1206.626465,2397.477539 1211.215088,2396.644287 
	C1232.729858,2392.736816 1251.550171,2382.926514 1268.474731,2369.553467 
	C1297.261963,2346.806641 1312.813110,2316.293945 1315.771851,2280.259766 
	C1318.057373,2252.423096 1317.662354,2224.342773 1317.862671,2196.366455 
	C1318.023560,2173.888672 1316.216064,2172.253418 1294.287231,2172.165283 
	C1257.627319,2172.018066 1220.966431,2172.125977 1184.305908,2172.157471 
	C1180.309326,2172.160889 1176.279785,2172.083740 1172.323730,2172.543945 
	C1165.255127,2173.366211 1161.119873,2176.977539 1160.860474,2184.093750 
	C1160.351196,2198.067139 1160.244995,2212.088867 1160.802490,2226.057129 
	C1161.211060,2236.289062 1165.248779,2239.801025 1176.237061,2240.167236 
	C1189.553833,2240.611084 1202.897095,2240.196777 1216.224487,2240.420410 
	C1222.042480,2240.518311 1227.849487,2241.277832 1234.184570,2241.778076 
	C1237.623169,2254.705566 1236.556396,2266.657227 1235.455688,2278.415771 
	C1233.089233,2303.697510 1217.542236,2321.341553 1192.996826,2328.060059 
	C1179.152954,2331.849121 1165.469604,2331.515625 1151.476318,2328.552490 
	C1121.643188,2322.235352 1102.060547,2301.893311 1097.843140,2271.635986 
	C1097.017944,2265.714844 1096.654297,2259.684814 1096.636963,2253.703125 
	C1096.517212,2212.377441 1096.514282,2171.050781 1096.565308,2129.724609 
	C1096.571777,2124.403809 1096.720459,2119.030029 1097.453979,2113.771484 
	C1102.472778,2077.791992 1125.157959,2055.838379 1161.358276,2053.960938 
	C1201.265015,2051.891357 1230.497803,2073.194580 1234.852905,2111.374023 
	C1235.289673,2115.202148 1236.217407,2118.974854 1236.834229,2122.322021 
	C1255.878906,2126.426270 1299.814697,2126.023926 1315.303467,2121.710693 
	C1315.904907,2119.477539 1317.047119,2116.977539 1317.161865,2114.431152 
	C1317.370850,2109.791016 1317.376465,2105.069336 1316.762329,2100.475586 
	C1310.204346,2051.422363 1283.738770,2017.228027 1238.961060,1996.846802 
	C1208.954224,1983.188721 1177.277100,1981.021851 1144.985474,1983.505371 
	C1118.467773,1985.544922 1094.173950,1994.316406 1072.368164,2009.344604 
	C1039.866577,2031.744141 1020.820251,2062.717041 1015.888306,2101.979736 
	C1014.562317,2112.536133 1013.916809,2123.238770 1013.844543,2133.880371 
	C1013.582031,2172.538330 1013.534302,2211.200195 1013.771545,2249.858154 
	C1013.836792,2260.493896 1014.607727,2271.198242 1016.023926,2281.740723 
	C1024.614014,2345.684326 1073.956665,2393.066895 1138.252930,2400.532227 
	C1157.020630,2402.711182 1175.463745,2401.855225 1197.493774,2399.388916 
M3441.156494,2212.548340 
	C3431.872559,2196.553711 3420.580078,2181.690430 3412.577148,2164.291992 
	C3416.913086,2158.256104 3420.603027,2152.790527 3424.629395,2147.585205 
	C3432.371582,2137.576904 3440.340088,2127.744141 3448.151855,2117.788818 
	C3476.110596,2082.159424 3504.088623,2046.544678 3531.938232,2010.829834 
	C3536.302734,2005.232666 3541.974854,2000.191040 3542.666992,1993.097534 
	C3539.040039,1986.392822 3533.356934,1986.737061 3528.188477,1986.642456 
	C3510.875732,1986.326050 3493.528076,1986.890381 3476.250000,1986.014771 
	C3462.281006,1985.307007 3452.421143,1990.314697 3443.941406,2001.437134 
	C3426.178955,2024.734863 3407.468994,2047.311279 3389.102295,2070.146973 
	C3368.648193,2095.577881 3348.196289,2121.010986 3327.595459,2146.322754 
	C3324.890137,2149.646484 3322.798096,2154.671387 3315.812744,2152.927734 
	C3315.249512,2149.440674 3314.217529,2145.673096 3314.110107,2141.879150 
	C3313.827637,2131.895508 3313.907227,2121.900146 3313.914062,2111.909424 
	C3313.936279,2078.606201 3314.091309,2045.302490 3313.956299,2011.999756 
	C3313.924561,2004.192871 3315.427734,1995.885620 3308.340820,1987.823853 
	C3287.740479,1984.626709 3265.828369,1986.156860 3243.991943,1986.650146 
	C3240.334961,1986.732666 3236.727051,1988.998901 3232.187500,1990.571045 
	C3231.846924,1998.989014 3231.253662,2006.895996 3231.248291,2014.803223 
	C3231.174805,2124.704346 3231.177979,2234.605469 3231.174316,2344.506592 
	C3231.174072,2356.495605 3231.062988,2368.489502 3231.379639,2380.471191 
	C3231.498291,2384.961426 3232.691406,2389.423340 3233.341064,2393.556152 
	C3242.310791,2398.666260 3251.140869,2396.702393 3259.621826,2396.983643 
	C3268.270752,2397.270264 3276.943604,2397.223877 3285.594482,2396.951660 
	C3294.064453,2396.685303 3302.868164,2398.507568 3310.126221,2394.565186 
	C3314.897949,2387.663574 3313.832275,2380.827637 3313.866211,2374.279297 
	C3314.004395,2347.637451 3314.615234,2320.970703 3313.694336,2294.360352 
	C3313.151855,2278.690430 3317.338379,2265.867188 3327.931396,2254.438477 
	C3334.698975,2247.136719 3340.272949,2238.739014 3346.568848,2230.984375 
	C3348.584473,2228.501709 3351.198242,2226.504639 3354.471680,2223.400391 
	C3358.125488,2228.410645 3361.468506,2232.436768 3364.203125,2236.840332 
	C3377.553467,2258.338135 3390.733398,2279.941406 3403.988770,2301.498291 
	C3421.081055,2329.295654 3438.325928,2357.000977 3455.202148,2384.928711 
	C3460.130371,2393.084229 3466.277100,2397.369141 3476.158447,2397.152344 
	C3496.796631,2396.699463 3517.452637,2397.093994 3538.095703,2396.778809 
	C3541.683350,2396.724121 3545.244141,2394.895264 3548.341797,2394.020264 
	C3550.054688,2384.423584 3544.459229,2378.947510 3540.700684,2372.875977 
	C3508.100098,2320.214111 3475.403564,2267.611816 3441.156494,2212.548340 
M3725.173584,2066.837891 
	C3749.281250,2050.699463 3775.766602,2050.515625 3801.983887,2058.246338 
	C3826.686523,2065.530518 3843.333984,2081.940430 3846.360352,2109.270264 
	C3846.848145,2113.675537 3848.616211,2117.938965 3850.026855,2123.129150 
	C3873.326904,2125.363770 3895.893066,2124.670410 3918.427002,2123.610352 
	C3924.994873,2123.301025 3927.635742,2119.221191 3927.772217,2110.661133 
	C3928.412842,2070.467285 3912.525391,2038.264526 3880.299316,2014.297729 
	C3863.516846,2001.816650 3844.648438,1993.551147 3824.417236,1988.418091 
	C3798.218262,1981.770996 3771.614746,1981.088867 3744.998047,1984.522705 
	C3718.901611,1987.889404 3694.429443,1996.024170 3673.010010,2012.091675 
	C3636.308350,2039.623169 3621.266602,2088.387695 3635.882812,2131.899658 
	C3643.675537,2155.097900 3659.289062,2171.936279 3678.469727,2185.887939 
	C3694.208496,2197.335938 3712.095947,2204.858643 3730.052246,2212.025146 
	C3753.559326,2221.406982 3777.358154,2230.072266 3800.731445,2239.769531 
	C3811.105225,2244.072998 3821.600098,2248.995605 3830.550781,2255.642334 
	C3853.878418,2272.965576 3852.391846,2305.103760 3827.973877,2321.296631 
	C3823.107910,2324.523193 3817.243408,2326.699707 3811.530762,2328.106934 
	C3795.808594,2331.979492 3779.957764,2332.082764 3763.974365,2328.857910 
	C3730.349609,2322.073242 3714.618164,2306.088379 3709.008545,2272.258301 
	C3707.397705,2262.543457 3705.509521,2260.005371 3696.752930,2259.806396 
	C3678.103027,2259.382812 3659.431641,2259.340820 3640.781250,2259.725586 
	C3631.246094,2259.921875 3628.230469,2263.539551 3627.878418,2273.710938 
	C3626.064697,2326.109131 3652.907715,2364.691650 3691.599365,2382.491455 
	C3734.768066,2402.350830 3779.781982,2406.713867 3826.223633,2397.423584 
	C3846.020020,2393.463623 3864.508545,2386.271484 3881.434814,2375.058105 
	C3926.581299,2345.150146 3943.854492,2284.796631 3920.086182,2237.395508 
	C3907.948975,2213.190674 3887.816162,2196.847900 3863.566650,2185.886719 
	C3844.772461,2177.391357 3825.384766,2170.190430 3806.163574,2162.663574 
	C3789.418213,2156.106201 3772.252197,2150.542725 3755.819092,2143.298584 
	C3745.569824,2138.780518 3735.555420,2132.932373 3726.830566,2125.940674 
	C3713.692871,2115.412354 3709.434326,2100.928223 3714.598877,2084.639160 
	C3716.359131,2079.087402 3720.049316,2074.147461 3725.173584,2066.837891 
M2308.195557,2273.143311 
	C2281.062012,2188.068359 2253.936035,2102.990967 2226.778809,2017.923462 
	C2224.752930,2011.577759 2222.395264,2005.337891 2220.381348,1998.988770 
	C2217.568604,1990.122437 2211.448730,1986.384644 2202.358154,1986.404053 
	C2178.360840,1986.455322 2154.359619,1986.058350 2130.366699,1986.369385 
	C2115.720947,1986.559082 2113.489990,1988.623657 2108.648193,2002.207153 
	C2107.978027,2004.087524 2107.560303,2006.056274 2106.952148,2007.960571 
	C2069.649902,2124.771240 2032.337036,2241.578125 1995.038940,2358.389893 
	C1992.404297,2366.641113 1989.521851,2374.840088 1987.469971,2383.238037 
	C1986.605835,2386.774658 1987.601318,2390.765869 1987.729980,2394.010254 
	C1990.044800,2395.074951 1991.241211,2396.096436 1992.450317,2396.111572 
	C2015.090332,2396.396484 2037.731812,2396.592773 2060.373291,2396.735596 
	C2068.264404,2396.785400 2072.572998,2392.002197 2074.739502,2385.100098 
	C2078.929199,2371.750488 2082.705566,2358.270020 2086.960693,2344.942383 
	C2088.321533,2340.680176 2090.651855,2336.727539 2092.949707,2331.741211 
	C2109.481445,2331.741211 2125.427734,2331.742676 2141.373779,2331.740723 
	C2158.039551,2331.738525 2174.711426,2331.442139 2191.368896,2331.812256 
	C2207.192871,2332.163818 2223.189697,2329.829834 2239.660645,2333.916016 
	C2241.838623,2340.322266 2244.097900,2346.544678 2246.066650,2352.857666 
	C2249.042236,2362.399414 2251.592285,2372.078369 2254.729248,2381.564697 
	C2259.107422,2394.804443 2261.253174,2396.758301 2274.476318,2396.984619 
	C2293.800049,2397.315674 2313.138672,2397.085449 2332.463623,2396.714844 
	C2336.112061,2396.644775 2339.726318,2394.804688 2343.119629,2393.848145 
	C2343.425537,2390.698486 2344.250732,2388.540283 2343.712891,2386.803711 
	C2332.282471,2349.900635 2320.698486,2313.044678 2308.195557,2273.143311 
M2899.415527,2249.513184 
	C2899.411377,2174.249756 2899.410400,2098.986572 2899.396729,2023.723267 
	C2899.395508,2017.063110 2899.552734,2010.390503 2899.211914,2003.745361 
	C2898.511719,1990.081543 2895.766357,1986.855713 2882.784180,1986.477783 
	C2866.147705,1985.993286 2849.487061,1986.277344 2832.837646,1986.339966 
	C2830.197998,1986.349854 2827.514893,1986.729248 2824.932373,1987.300903 
	C2820.661133,1988.246216 2817.617432,1990.973633 2817.182129,1995.334717 
	C2816.523438,2001.937134 2816.258545,2008.603027 2816.252686,2015.242432 
	C2816.182129,2093.835693 2816.171631,2172.428955 2816.209961,2251.022217 
	C2816.213867,2259.009521 2816.175537,2267.041260 2816.942139,2274.976807 
	C2822.795654,2335.558105 2856.975586,2377.997070 2915.439941,2394.809082 
	C2949.988037,2404.743652 2985.481689,2404.884033 3020.030273,2394.942627 
	C3072.375244,2379.880859 3106.235107,2346.198975 3116.698242,2291.597412 
	C3118.937744,2279.910645 3119.963379,2267.819824 3120.002197,2255.910156 
	C3120.269531,2173.987549 3120.136230,2092.063721 3120.087158,2010.140259 
	C3120.084229,2005.489990 3119.976807,2000.802856 3119.392578,1996.199585 
	C3118.734131,1991.011108 3115.437256,1987.300537 3110.237305,1987.201416 
	C3089.621094,1986.807983 3068.992432,1986.621216 3048.376953,1986.928955 
	C3042.002197,1987.024170 3038.485352,1990.772583 3037.755859,1996.877197 
	C3037.047852,2002.801025 3037.049805,2008.830933 3037.044678,2014.814331 
	C3036.978760,2092.741455 3036.989746,2170.668457 3036.910156,2248.595703 
	C3036.901367,2257.246094 3037.266113,2266.011230 3036.057617,2274.524414 
	C3032.735107,2297.927002 3020.657959,2315.357422 2998.662842,2325.059326 
	C2984.230225,2331.425781 2969.038574,2332.669434 2953.636963,2329.885986 
	C2922.158203,2324.196289 2901.998291,2301.406982 2899.790527,2269.322998 
	C2899.425293,2264.014160 2899.529541,2258.672852 2899.415527,2249.513184 
M1710.825439,2293.996582 
	C1710.850464,2321.291260 1710.765869,2348.586670 1710.981079,2375.879639 
	C1711.031982,2382.332764 1709.537720,2389.356201 1715.038330,2394.643311 
	C1733.259521,2398.296387 1774.707520,2397.946533 1790.832520,2393.820068 
	C1794.598999,2386.138184 1793.452637,2377.387695 1793.460205,2368.900146 
	C1793.543091,2276.365234 1793.508545,2183.830078 1793.519897,2091.295166 
	C1793.520630,2084.638916 1793.289307,2077.955078 1793.822266,2071.336914 
	C1794.121338,2067.621826 1795.767578,2064.015137 1797.034668,2059.558105 
	C1804.362183,2059.219727 1810.917847,2058.688477 1817.475830,2058.656250 
	C1838.112549,2058.555176 1858.750122,2058.651611 1879.387451,2058.646729 
	C1884.046265,2058.645752 1888.727661,2058.817871 1893.359375,2058.435303 
	C1904.324463,2057.529053 1907.886108,2054.384521 1908.142334,2043.760498 
	C1908.511353,2028.465088 1908.169922,2013.148682 1907.889282,1997.845581 
	C1907.842896,1995.314575 1906.559692,1992.806152 1905.872925,1990.375000 
	C1898.434814,1985.117188 1890.237183,1986.256714 1882.409790,1986.248413 
	C1796.532227,1986.157593 1710.654419,1986.199585 1624.776733,1986.216431 
	C1621.448975,1986.217041 1618.068115,1985.979370 1614.806274,1986.473633 
	C1610.373413,1987.145386 1606.031250,1988.416260 1601.178589,1989.539185 
	C1600.362305,1994.916138 1599.214111,1999.405273 1599.088379,2003.922729 
	C1598.791992,2014.566040 1598.862915,2025.224609 1599.002563,2035.874023 
	C1599.270264,2056.286133 1601.390625,2058.450684 1622.261597,2058.600830 
	C1645.560547,2058.768311 1668.862183,2058.528320 1692.161377,2058.678467 
	C1697.968506,2058.715820 1704.264893,2057.497314 1709.206665,2062.861816 
	C1709.625732,2064.491699 1710.546387,2066.408447 1710.550171,2068.326416 
	C1710.694092,2142.216309 1710.754150,2216.106445 1710.825439,2293.996582 
M2524.054199,2150.000000 
	C2524.056396,2106.046387 2524.066895,2062.092773 2524.050537,2018.139160 
	C2524.048340,2012.146362 2524.197998,2006.132935 2523.771484,2000.165283 
	C2523.072021,1990.378052 2520.181641,1987.009277 2510.138916,1986.698975 
	C2492.178223,1986.144287 2474.181641,1986.130859 2456.216309,1986.559204 
	C2444.406250,1986.840820 2441.629883,1990.300171 2440.852539,2002.702637 
	C2440.727783,2004.693970 2440.772949,2006.697144 2440.772949,2008.694824 
	C2440.773682,2130.565430 2440.727783,2252.436035 2440.828857,2374.306641 
	C2440.846680,2395.831055 2442.143066,2396.852539 2463.428711,2397.114014 
	C2465.426270,2397.138428 2467.424561,2397.124512 2469.422363,2397.123779 
	C2527.360840,2397.104492 2585.299316,2397.090088 2643.237793,2397.062012 
	C2663.882324,2397.052002 2684.528564,2397.131592 2705.170654,2396.900635 
	C2711.000732,2396.835449 2717.245605,2397.947510 2723.894775,2392.403076 
	C2724.362793,2387.907959 2725.443848,2382.092529 2725.478027,2376.271484 
	C2725.556641,2362.971680 2725.388184,2349.656738 2724.764160,2336.374023 
	C2724.521484,2331.204346 2720.722656,2327.884033 2715.571777,2327.343018 
	C2708.969238,2326.649170 2702.298340,2326.351562 2695.656006,2326.339355 
	C2646.375000,2326.249023 2597.093994,2326.340576 2547.813477,2326.182861 
	C2540.672607,2326.159912 2533.155762,2327.749268 2526.720215,2323.456055 
	C2525.962402,2322.064697 2524.800293,2320.924316 2524.793945,2319.777344 
	C2524.484375,2264.518555 2524.274902,2209.259277 2524.054199,2150.000000 
M824.695251,2233.999756 
	C824.724731,2277.995361 824.746582,2321.990723 824.793762,2365.986328 
	C824.799438,2371.318115 824.719177,2376.664795 825.067078,2381.979004 
	C825.828430,2393.608154 828.272827,2396.616699 839.264526,2396.801025 
	C858.582642,2397.125488 877.914246,2396.777344 897.237427,2396.509766 
	C899.773315,2396.474854 902.292786,2395.254395 905.061462,2394.518799 
	C909.345154,2386.854736 907.948730,2378.709473 907.954346,2370.882568 
	C908.040222,2252.228027 908.022034,2133.573486 908.008179,2014.919067 
	C908.007568,2009.589111 908.113953,2004.233276 907.649963,1998.935059 
	C906.907593,1990.457153 903.742737,1986.998291 894.956726,1986.635864 
	C880.980042,1986.059692 866.969666,1986.212891 852.973511,1986.217651 
	C825.379272,1986.227051 824.879517,1986.657349 824.839783,2014.021729 
	C824.735474,2086.014404 824.736511,2158.006836 824.695251,2233.999756 
M1504.018188,2357.652832 
	C1504.011963,2245.212891 1504.009033,2132.772705 1503.990967,2020.332764 
	C1503.989868,2013.680176 1504.156616,2007.009277 1503.735718,2000.379272 
	C1503.094849,1990.285156 1500.379272,1987.038574 1490.403564,1986.759888 
	C1471.792480,1986.239746 1453.151245,1986.236328 1434.536499,1986.649414 
	C1425.079346,1986.859131 1421.981323,1990.590820 1421.041260,2000.401855 
	C1420.724976,2003.703247 1420.824219,2007.049438 1420.823975,2010.375244 
	C1420.816772,2131.464355 1420.812988,2252.553223 1420.850830,2373.642334 
	C1420.852295,2378.285889 1420.952148,2382.972900 1421.576538,2387.561768 
	C1422.276611,2392.706787 1425.429199,2396.315918 1430.804443,2396.366699 
	C1452.076050,2396.568115 1473.353394,2396.661377 1494.621948,2396.340088 
	C1500.247437,2396.255127 1503.202759,2392.988037 1503.524414,2387.456055 
	C1504.026123,2378.832275 1503.884644,2370.171143 1504.018188,2357.652832 
z"/>
<path fill="#8F8BA8" opacity="1.000000" stroke="none" 
	d="
M710.816833,2322.354004 
	C687.481262,2369.013184 648.793152,2390.188965 600.295349,2396.331055 
	C593.720764,2397.163330 586.997986,2396.989990 580.343445,2397.000488 
	C535.723816,2397.071777 491.103821,2397.146729 446.484589,2397.010254 
	C438.652466,2396.986328 430.460388,2398.437500 423.369934,2393.952881 
	C418.888702,2387.035400 420.208008,2379.512207 420.169373,2372.307617 
	C420.005096,2341.673828 420.081116,2311.039062 420.081451,2280.404541 
	C420.082489,2193.828857 420.089325,2107.253174 420.094574,2020.677612 
	C420.094818,2016.681763 420.055878,2012.685425 420.113861,2008.690308 
	C420.407593,1988.452026 421.942474,1986.422607 441.357330,1986.325073 
	C485.309143,1986.104248 529.271423,1985.864868 573.212036,1986.631592 
	C589.079468,1986.908447 605.047424,1989.219849 620.697083,1992.088745 
	C637.858276,1995.234985 653.596069,2002.716309 668.163757,2012.366455 
	C700.381592,2033.708862 717.203613,2063.992188 719.931458,2102.317627 
	C720.309265,2107.626709 720.377991,2112.966309 720.382263,2118.291748 
	C720.422546,2168.239258 720.379822,2218.186523 720.445740,2268.134033 
	C720.469666,2286.272461 718.314331,2303.998779 710.816833,2322.354004 
M503.290466,2177.999756 
	C503.290436,2193.986572 503.291443,2209.973633 503.290070,2225.960449 
	C503.288635,2242.613525 503.031158,2259.271240 503.355499,2275.917969 
	C503.664490,2291.775879 501.645447,2307.758057 504.829285,2323.126221 
	C506.646942,2324.093018 507.813446,2325.252930 508.983582,2325.256592 
	C534.920593,2325.337891 560.885742,2326.018066 586.785889,2325.026123 
	C605.615906,2324.305176 618.776184,2313.145752 627.919312,2297.129150 
	C635.419495,2283.990234 637.473511,2269.616943 637.456360,2254.748047 
	C637.408813,2213.449219 637.540161,2172.149658 637.369141,2130.851562 
	C637.336182,2122.888672 636.959473,2114.799316 635.521912,2106.992920 
	C630.648254,2080.528320 612.720886,2063.137939 586.378174,2058.748047 
	C581.140015,2057.875000 575.800049,2057.245117 570.499146,2057.183838 
	C553.182556,2056.983643 535.859985,2056.943604 518.544922,2057.197266 
	C514.078796,2057.262451 509.631744,2058.630859 503.245605,2059.734131 
	C503.207489,2098.263672 503.312378,2136.132812 503.290466,2177.999756 
z"/>
<path fill="#8F8AA7" opacity="1.000000" stroke="none" 
	d="
M1195.760254,2399.561035 
	C1175.463745,2401.855225 1157.020630,2402.711182 1138.252930,2400.532227 
	C1073.956665,2393.066895 1024.614014,2345.684326 1016.023926,2281.740723 
	C1014.607727,2271.198242 1013.836792,2260.493896 1013.771545,2249.858154 
	C1013.534302,2211.200195 1013.582031,2172.538330 1013.844543,2133.880371 
	C1013.916809,2123.238770 1014.562317,2112.536133 1015.888306,2101.979736 
	C1020.820251,2062.717041 1039.866577,2031.744141 1072.368164,2009.344604 
	C1094.173950,1994.316406 1118.467773,1985.544922 1144.985474,1983.505371 
	C1177.277100,1981.021851 1208.954224,1983.188721 1238.961060,1996.846802 
	C1283.738770,2017.228027 1310.204346,2051.422363 1316.762329,2100.475586 
	C1317.376465,2105.069336 1317.370850,2109.791016 1317.161865,2114.431152 
	C1317.047119,2116.977539 1315.904907,2119.477539 1315.303467,2121.710693 
	C1299.814697,2126.023926 1255.878906,2126.426270 1236.834229,2122.322021 
	C1236.217407,2118.974854 1235.289673,2115.202148 1234.852905,2111.374023 
	C1230.497803,2073.194580 1201.265015,2051.891357 1161.358276,2053.960938 
	C1125.157959,2055.838379 1102.472778,2077.791992 1097.453979,2113.771484 
	C1096.720459,2119.030029 1096.571777,2124.403809 1096.565308,2129.724609 
	C1096.514282,2171.050781 1096.517212,2212.377441 1096.636963,2253.703125 
	C1096.654297,2259.684814 1097.017944,2265.714844 1097.843140,2271.635986 
	C1102.060547,2301.893311 1121.643188,2322.235352 1151.476318,2328.552490 
	C1165.469604,2331.515625 1179.152954,2331.849121 1192.996826,2328.060059 
	C1217.542236,2321.341553 1233.089233,2303.697510 1235.455688,2278.415771 
	C1236.556396,2266.657227 1237.623169,2254.705566 1234.184570,2241.778076 
	C1227.849487,2241.277832 1222.042480,2240.518311 1216.224487,2240.420410 
	C1202.897095,2240.196777 1189.553833,2240.611084 1176.237061,2240.167236 
	C1165.248779,2239.801025 1161.211060,2236.289062 1160.802490,2226.057129 
	C1160.244995,2212.088867 1160.351196,2198.067139 1160.860474,2184.093750 
	C1161.119873,2176.977539 1165.255127,2173.366211 1172.323730,2172.543945 
	C1176.279785,2172.083740 1180.309326,2172.160889 1184.305908,2172.157471 
	C1220.966431,2172.125977 1257.627319,2172.018066 1294.287231,2172.165283 
	C1316.216064,2172.253418 1318.023560,2173.888672 1317.862671,2196.366455 
	C1317.662354,2224.342773 1318.057373,2252.423096 1315.771851,2280.259766 
	C1312.813110,2316.293945 1297.261963,2346.806641 1268.474731,2369.553467 
	C1251.550171,2382.926514 1232.729858,2392.736816 1211.215088,2396.644287 
	C1206.626465,2397.477539 1202.066772,2398.469971 1195.760254,2399.561035 
z"/>
<path fill="#8F8BA8" opacity="1.000000" stroke="none" 
	d="
M3441.946045,2213.770020 
	C3475.403564,2267.611816 3508.100098,2320.214111 3540.700684,2372.875977 
	C3544.459229,2378.947510 3550.054688,2384.423584 3548.341797,2394.020264 
	C3545.244141,2394.895264 3541.683350,2396.724121 3538.095703,2396.778809 
	C3517.452637,2397.093994 3496.796631,2396.699463 3476.158447,2397.152344 
	C3466.277100,2397.369141 3460.130371,2393.084229 3455.202148,2384.928711 
	C3438.325928,2357.000977 3421.081055,2329.295654 3403.988770,2301.498291 
	C3390.733398,2279.941406 3377.553467,2258.338135 3364.203125,2236.840332 
	C3361.468506,2232.436768 3358.125488,2228.410645 3354.471680,2223.400391 
	C3351.198242,2226.504639 3348.584473,2228.501709 3346.568848,2230.984375 
	C3340.272949,2238.739014 3334.698975,2247.136719 3327.931396,2254.438477 
	C3317.338379,2265.867188 3313.151855,2278.690430 3313.694336,2294.360352 
	C3314.615234,2320.970703 3314.004395,2347.637451 3313.866211,2374.279297 
	C3313.832275,2380.827637 3314.897949,2387.663574 3310.126221,2394.565186 
	C3302.868164,2398.507568 3294.064453,2396.685303 3285.594482,2396.951660 
	C3276.943604,2397.223877 3268.270752,2397.270264 3259.621826,2396.983643 
	C3251.140869,2396.702393 3242.310791,2398.666260 3233.341064,2393.556152 
	C3232.691406,2389.423340 3231.498291,2384.961426 3231.379639,2380.471191 
	C3231.062988,2368.489502 3231.174072,2356.495605 3231.174316,2344.506592 
	C3231.177979,2234.605469 3231.174805,2124.704346 3231.248291,2014.803223 
	C3231.253662,2006.895996 3231.846924,1998.989014 3232.187500,1990.571045 
	C3236.727051,1988.998901 3240.334961,1986.732666 3243.991943,1986.650146 
	C3265.828369,1986.156860 3287.740479,1984.626709 3308.340820,1987.823853 
	C3315.427734,1995.885620 3313.924561,2004.192871 3313.956299,2011.999756 
	C3314.091309,2045.302490 3313.936279,2078.606201 3313.914062,2111.909424 
	C3313.907227,2121.900146 3313.827637,2131.895508 3314.110107,2141.879150 
	C3314.217529,2145.673096 3315.249512,2149.440674 3315.812744,2152.927734 
	C3322.798096,2154.671387 3324.890137,2149.646484 3327.595459,2146.322754 
	C3348.196289,2121.010986 3368.648193,2095.577881 3389.102295,2070.146973 
	C3407.468994,2047.311279 3426.178955,2024.734863 3443.941406,2001.437134 
	C3452.421143,1990.314697 3462.281006,1985.307007 3476.250000,1986.014771 
	C3493.528076,1986.890381 3510.875732,1986.326050 3528.188477,1986.642456 
	C3533.356934,1986.737061 3539.040039,1986.392822 3542.666992,1993.097534 
	C3541.974854,2000.191040 3536.302734,2005.232666 3531.938232,2010.829834 
	C3504.088623,2046.544678 3476.110596,2082.159424 3448.151855,2117.788818 
	C3440.340088,2127.744141 3432.371582,2137.576904 3424.629395,2147.585205 
	C3420.603027,2152.790527 3416.913086,2158.256104 3412.577148,2164.291992 
	C3420.580078,2181.690430 3431.872559,2196.553711 3441.946045,2213.770020 
z"/>
<path fill="#8F8AA7" opacity="1.000000" stroke="none" 
	d="
M3724.015625,2067.882812 
	C3720.049316,2074.147461 3716.359131,2079.087402 3714.598877,2084.639160 
	C3709.434326,2100.928223 3713.692871,2115.412354 3726.830566,2125.940674 
	C3735.555420,2132.932373 3745.569824,2138.780518 3755.819092,2143.298584 
	C3772.252197,2150.542725 3789.418213,2156.106201 3806.163574,2162.663574 
	C3825.384766,2170.190430 3844.772461,2177.391357 3863.566650,2185.886719 
	C3887.816162,2196.847900 3907.948975,2213.190674 3920.086182,2237.395508 
	C3943.854492,2284.796631 3926.581299,2345.150146 3881.434814,2375.058105 
	C3864.508545,2386.271484 3846.020020,2393.463623 3826.223633,2397.423584 
	C3779.781982,2406.713867 3734.768066,2402.350830 3691.599365,2382.491455 
	C3652.907715,2364.691650 3626.064697,2326.109131 3627.878418,2273.710938 
	C3628.230469,2263.539551 3631.246094,2259.921875 3640.781250,2259.725586 
	C3659.431641,2259.340820 3678.103027,2259.382812 3696.752930,2259.806396 
	C3705.509521,2260.005371 3707.397705,2262.543457 3709.008545,2272.258301 
	C3714.618164,2306.088379 3730.349609,2322.073242 3763.974365,2328.857910 
	C3779.957764,2332.082764 3795.808594,2331.979492 3811.530762,2328.106934 
	C3817.243408,2326.699707 3823.107910,2324.523193 3827.973877,2321.296631 
	C3852.391846,2305.103760 3853.878418,2272.965576 3830.550781,2255.642334 
	C3821.600098,2248.995605 3811.105225,2244.072998 3800.731445,2239.769531 
	C3777.358154,2230.072266 3753.559326,2221.406982 3730.052246,2212.025146 
	C3712.095947,2204.858643 3694.208496,2197.335938 3678.469727,2185.887939 
	C3659.289062,2171.936279 3643.675537,2155.097900 3635.882812,2131.899658 
	C3621.266602,2088.387695 3636.308350,2039.623169 3673.010010,2012.091675 
	C3694.429443,1996.024170 3718.901611,1987.889404 3744.998047,1984.522705 
	C3771.614746,1981.088867 3798.218262,1981.770996 3824.417236,1988.418091 
	C3844.648438,1993.551147 3863.516846,2001.816650 3880.299316,2014.297729 
	C3912.525391,2038.264526 3928.412842,2070.467285 3927.772217,2110.661133 
	C3927.635742,2119.221191 3924.994873,2123.301025 3918.427002,2123.610352 
	C3895.893066,2124.670410 3873.326904,2125.363770 3850.026855,2123.129150 
	C3848.616211,2117.938965 3846.848145,2113.675537 3846.360352,2109.270264 
	C3843.333984,2081.940430 3826.686523,2065.530518 3801.983887,2058.246338 
	C3775.766602,2050.515625 3749.281250,2050.699463 3724.015625,2067.882812 
z"/>
<path fill="#8F8AA8" opacity="1.000000" stroke="none" 
	d="
M2308.669922,2274.661621 
	C2320.698486,2313.044678 2332.282471,2349.900635 2343.712891,2386.803711 
	C2344.250732,2388.540283 2343.425537,2390.698486 2343.119629,2393.848145 
	C2339.726318,2394.804688 2336.112061,2396.644775 2332.463623,2396.714844 
	C2313.138672,2397.085449 2293.800049,2397.315674 2274.476318,2396.984619 
	C2261.253174,2396.758301 2259.107422,2394.804443 2254.729248,2381.564697 
	C2251.592285,2372.078369 2249.042236,2362.399414 2246.066650,2352.857666 
	C2244.097900,2346.544678 2241.838623,2340.322266 2239.660645,2333.916016 
	C2223.189697,2329.829834 2207.192871,2332.163818 2191.368896,2331.812256 
	C2174.711426,2331.442139 2158.039551,2331.738525 2141.373779,2331.740723 
	C2125.427734,2331.742676 2109.481445,2331.741211 2092.949707,2331.741211 
	C2090.651855,2336.727539 2088.321533,2340.680176 2086.960693,2344.942383 
	C2082.705566,2358.270020 2078.929199,2371.750488 2074.739502,2385.100098 
	C2072.572998,2392.002197 2068.264404,2396.785400 2060.373291,2396.735596 
	C2037.731812,2396.592773 2015.090332,2396.396484 1992.450317,2396.111572 
	C1991.241211,2396.096436 1990.044800,2395.074951 1987.729980,2394.010254 
	C1987.601318,2390.765869 1986.605835,2386.774658 1987.469971,2383.238037 
	C1989.521851,2374.840088 1992.404297,2366.641113 1995.038940,2358.389893 
	C2032.337036,2241.578125 2069.649902,2124.771240 2106.952148,2007.960571 
	C2107.560303,2006.056274 2107.978027,2004.087524 2108.648193,2002.207153 
	C2113.489990,1988.623657 2115.720947,1986.559082 2130.366699,1986.369385 
	C2154.359619,1986.058350 2178.360840,1986.455322 2202.358154,1986.404053 
	C2211.448730,1986.384644 2217.568604,1990.122437 2220.381348,1998.988770 
	C2222.395264,2005.337891 2224.752930,2011.577759 2226.778809,2017.923462 
	C2253.936035,2102.990967 2281.062012,2188.068359 2308.669922,2274.661621 
M2186.041260,2147.781006 
	C2183.976318,2140.766602 2181.924316,2133.748291 2179.842529,2126.739258 
	C2177.760986,2119.729736 2175.791504,2112.682373 2173.509521,2105.738281 
	C2171.357910,2099.190674 2170.926025,2091.783936 2164.655273,2085.385498 
	C2162.655029,2088.768555 2160.864502,2090.774658 2160.178711,2093.105957 
	C2144.245117,2147.299561 2128.392090,2201.517090 2112.703857,2255.782227 
	C2111.863525,2258.688965 2112.595459,2262.050537 2112.595459,2264.970215 
	C2126.078613,2267.602051 2193.280273,2268.812500 2213.076660,2266.814697 
	C2214.800781,2266.640869 2216.385010,2265.083740 2217.718994,2264.343994 
	C2218.085693,2262.531494 2218.839355,2261.126709 2218.524170,2260.028809 
	C2208.079346,2223.619873 2197.531982,2187.240234 2186.041260,2147.781006 
z"/>
<path fill="#8F8AA7" opacity="1.000000" stroke="none" 
	d="
M2899.416016,2251.429932 
	C2899.529541,2258.672852 2899.425293,2264.014160 2899.790527,2269.322998 
	C2901.998291,2301.406982 2922.158203,2324.196289 2953.636963,2329.885986 
	C2969.038574,2332.669434 2984.230225,2331.425781 2998.662842,2325.059326 
	C3020.657959,2315.357422 3032.735107,2297.927002 3036.057617,2274.524414 
	C3037.266113,2266.011230 3036.901367,2257.246094 3036.910156,2248.595703 
	C3036.989746,2170.668457 3036.978760,2092.741455 3037.044678,2014.814331 
	C3037.049805,2008.830933 3037.047852,2002.801025 3037.755859,1996.877197 
	C3038.485352,1990.772583 3042.002197,1987.024170 3048.376953,1986.928955 
	C3068.992432,1986.621216 3089.621094,1986.807983 3110.237305,1987.201416 
	C3115.437256,1987.300537 3118.734131,1991.011108 3119.392578,1996.199585 
	C3119.976807,2000.802856 3120.084229,2005.489990 3120.087158,2010.140259 
	C3120.136230,2092.063721 3120.269531,2173.987549 3120.002197,2255.910156 
	C3119.963379,2267.819824 3118.937744,2279.910645 3116.698242,2291.597412 
	C3106.235107,2346.198975 3072.375244,2379.880859 3020.030273,2394.942627 
	C2985.481689,2404.884033 2949.988037,2404.743652 2915.439941,2394.809082 
	C2856.975586,2377.997070 2822.795654,2335.558105 2816.942139,2274.976807 
	C2816.175537,2267.041260 2816.213867,2259.009521 2816.209961,2251.022217 
	C2816.171631,2172.428955 2816.182129,2093.835693 2816.252686,2015.242432 
	C2816.258545,2008.603027 2816.523438,2001.937134 2817.182129,1995.334717 
	C2817.617432,1990.973633 2820.661133,1988.246216 2824.932373,1987.300903 
	C2827.514893,1986.729248 2830.197998,1986.349854 2832.837646,1986.339966 
	C2849.487061,1986.277344 2866.147705,1985.993286 2882.784180,1986.477783 
	C2895.766357,1986.855713 2898.511719,1990.081543 2899.211914,2003.745361 
	C2899.552734,2010.390503 2899.395508,2017.063110 2899.396729,2023.723267 
	C2899.410400,2098.986572 2899.411377,2174.249756 2899.416016,2251.429932 
z"/>
<path fill="#908BA9" opacity="1.000000" stroke="none" 
	d="
M1710.825439,2291.996582 
	C1710.754150,2216.106445 1710.694092,2142.216309 1710.550171,2068.326416 
	C1710.546387,2066.408447 1709.625732,2064.491699 1709.206665,2062.861816 
	C1704.264893,2057.497314 1697.968506,2058.715820 1692.161377,2058.678467 
	C1668.862183,2058.528320 1645.560547,2058.768311 1622.261597,2058.600830 
	C1601.390625,2058.450684 1599.270264,2056.286133 1599.002563,2035.874023 
	C1598.862915,2025.224609 1598.791992,2014.566040 1599.088379,2003.922729 
	C1599.214111,1999.405273 1600.362305,1994.916138 1601.178589,1989.539185 
	C1606.031250,1988.416260 1610.373413,1987.145386 1614.806274,1986.473633 
	C1618.068115,1985.979370 1621.448975,1986.217041 1624.776733,1986.216431 
	C1710.654419,1986.199585 1796.532227,1986.157593 1882.409790,1986.248413 
	C1890.237183,1986.256714 1898.434814,1985.117188 1905.872925,1990.375000 
	C1906.559692,1992.806152 1907.842896,1995.314575 1907.889282,1997.845581 
	C1908.169922,2013.148682 1908.511353,2028.465088 1908.142334,2043.760498 
	C1907.886108,2054.384521 1904.324463,2057.529053 1893.359375,2058.435303 
	C1888.727661,2058.817871 1884.046265,2058.645752 1879.387451,2058.646729 
	C1858.750122,2058.651611 1838.112549,2058.555176 1817.475830,2058.656250 
	C1810.917847,2058.688477 1804.362183,2059.219727 1797.034668,2059.558105 
	C1795.767578,2064.015137 1794.121338,2067.621826 1793.822266,2071.336914 
	C1793.289307,2077.955078 1793.520630,2084.638916 1793.519897,2091.295166 
	C1793.508545,2183.830078 1793.543091,2276.365234 1793.460205,2368.900146 
	C1793.452637,2377.387695 1794.598999,2386.138184 1790.832520,2393.820068 
	C1774.707520,2397.946533 1733.259521,2398.296387 1715.038330,2394.643311 
	C1709.537720,2389.356201 1711.031982,2382.332764 1710.981079,2375.879639 
	C1710.765869,2348.586670 1710.850464,2321.291260 1710.825439,2291.996582 
z"/>
<path fill="#8F8BA8" opacity="1.000000" stroke="none" 
	d="
M2524.054199,2152.000000 
	C2524.274902,2209.259277 2524.484375,2264.518555 2524.793945,2319.777344 
	C2524.800293,2320.924316 2525.962402,2322.064697 2526.720215,2323.456055 
	C2533.155762,2327.749268 2540.672607,2326.159912 2547.813477,2326.182861 
	C2597.093994,2326.340576 2646.375000,2326.249023 2695.656006,2326.339355 
	C2702.298340,2326.351562 2708.969238,2326.649170 2715.571777,2327.343018 
	C2720.722656,2327.884033 2724.521484,2331.204346 2724.764160,2336.374023 
	C2725.388184,2349.656738 2725.556641,2362.971680 2725.478027,2376.271484 
	C2725.443848,2382.092529 2724.362793,2387.907959 2723.894775,2392.403076 
	C2717.245605,2397.947510 2711.000732,2396.835449 2705.170654,2396.900635 
	C2684.528564,2397.131592 2663.882324,2397.052002 2643.237793,2397.062012 
	C2585.299316,2397.090088 2527.360840,2397.104492 2469.422363,2397.123779 
	C2467.424561,2397.124512 2465.426270,2397.138428 2463.428711,2397.114014 
	C2442.143066,2396.852539 2440.846680,2395.831055 2440.828857,2374.306641 
	C2440.727783,2252.436035 2440.773682,2130.565430 2440.772949,2008.694824 
	C2440.772949,2006.697144 2440.727783,2004.693970 2440.852539,2002.702637 
	C2441.629883,1990.300171 2444.406250,1986.840820 2456.216309,1986.559204 
	C2474.181641,1986.130859 2492.178223,1986.144287 2510.138916,1986.698975 
	C2520.181641,1987.009277 2523.072021,1990.378052 2523.771484,2000.165283 
	C2524.197998,2006.132935 2524.048340,2012.146362 2524.050537,2018.139160 
	C2524.066895,2062.092773 2524.056396,2106.046387 2524.054199,2152.000000 
z"/>
<path fill="#8F8AA7" opacity="1.000000" stroke="none" 
	d="
M824.695435,2231.999512 
	C824.736511,2158.006836 824.735474,2086.014404 824.839783,2014.021729 
	C824.879517,1986.657349 825.379272,1986.227051 852.973511,1986.217651 
	C866.969666,1986.212891 880.980042,1986.059692 894.956726,1986.635864 
	C903.742737,1986.998291 906.907593,1990.457153 907.649963,1998.935059 
	C908.113953,2004.233276 908.007568,2009.589111 908.008179,2014.919067 
	C908.022034,2133.573486 908.040222,2252.228027 907.954346,2370.882568 
	C907.948730,2378.709473 909.345154,2386.854736 905.061462,2394.518799 
	C902.292786,2395.254395 899.773315,2396.474854 897.237427,2396.509766 
	C877.914246,2396.777344 858.582642,2397.125488 839.264526,2396.801025 
	C828.272827,2396.616699 825.828430,2393.608154 825.067078,2381.979004 
	C824.719177,2376.664795 824.799438,2371.318115 824.793762,2365.986328 
	C824.746582,2321.990723 824.724731,2277.995361 824.695435,2231.999512 
z"/>
<path fill="#8F8AA7" opacity="1.000000" stroke="none" 
	d="
M1504.016968,2359.589355 
	C1503.884644,2370.171143 1504.026123,2378.832275 1503.524414,2387.456055 
	C1503.202759,2392.988037 1500.247437,2396.255127 1494.621948,2396.340088 
	C1473.353394,2396.661377 1452.076050,2396.568115 1430.804443,2396.366699 
	C1425.429199,2396.315918 1422.276611,2392.706787 1421.576538,2387.561768 
	C1420.952148,2382.972900 1420.852295,2378.285889 1420.850830,2373.642334 
	C1420.812988,2252.553223 1420.816772,2131.464355 1420.823975,2010.375244 
	C1420.824219,2007.049438 1420.724976,2003.703247 1421.041260,2000.401855 
	C1421.981323,1990.590820 1425.079346,1986.859131 1434.536499,1986.649414 
	C1453.151245,1986.236328 1471.792480,1986.239746 1490.403564,1986.759888 
	C1500.379272,1987.038574 1503.094849,1990.285156 1503.735718,2000.379272 
	C1504.156616,2007.009277 1503.989868,2013.680176 1503.990967,2020.332764 
	C1504.009033,2132.772705 1504.011963,2245.212891 1504.016968,2359.589355 
z"/>
<path fill="#201D2C" opacity="1.000000" stroke="none" 
	d="
M503.290466,2175.999512 
	C503.312378,2136.132812 503.207489,2098.263672 503.245605,2059.734131 
	C509.631744,2058.630859 514.078796,2057.262451 518.544922,2057.197266 
	C535.859985,2056.943604 553.182556,2056.983643 570.499146,2057.183838 
	C575.800049,2057.245117 581.140015,2057.875000 586.378174,2058.748047 
	C612.720886,2063.137939 630.648254,2080.528320 635.521912,2106.992920 
	C636.959473,2114.799316 637.336182,2122.888672 637.369141,2130.851562 
	C637.540161,2172.149658 637.408813,2213.449219 637.456360,2254.748047 
	C637.473511,2269.616943 635.419495,2283.990234 627.919312,2297.129150 
	C618.776184,2313.145752 605.615906,2324.305176 586.785889,2325.026123 
	C560.885742,2326.018066 534.920593,2325.337891 508.983582,2325.256592 
	C507.813446,2325.252930 506.646942,2324.093018 504.829285,2323.126221 
	C501.645447,2307.758057 503.664490,2291.775879 503.355499,2275.917969 
	C503.031158,2259.271240 503.288635,2242.613525 503.290070,2225.960449 
	C503.291443,2209.973633 503.290436,2193.986572 503.290466,2175.999512 
z"/>
<path fill="#22202F" opacity="1.000000" stroke="none" 
	d="
M2186.520508,2149.318848 
	C2197.531982,2187.240234 2208.079346,2223.619873 2218.524170,2260.028809 
	C2218.839355,2261.126709 2218.085693,2262.531494 2217.718994,2264.343994 
	C2216.385010,2265.083740 2214.800781,2266.640869 2213.076660,2266.814697 
	C2193.280273,2268.812500 2126.078613,2267.602051 2112.595459,2264.970215 
	C2112.595459,2262.050537 2111.863525,2258.688965 2112.703857,2255.782227 
	C2128.392090,2201.517090 2144.245117,2147.299561 2160.178711,2093.105957 
	C2160.864502,2090.774658 2162.655029,2088.768555 2164.655273,2085.385498 
	C2170.926025,2091.783936 2171.357910,2099.190674 2173.509521,2105.738281 
	C2175.791504,2112.682373 2177.760986,2119.729736 2179.842529,2126.739258 
	C2181.924316,2133.748291 2183.976318,2140.766602 2186.520508,2149.318848 
z"/>
</svg>