<svg xmlns="http://www.w3.org/2000/svg" xmlns:v="https://svgstorm.com"
viewBox = "0 0 1600 1600"
width="1600"
height="1600">
<g fill="None" fill-opacity="0.0" stroke="#FFFFFF" stroke-opacity="1.00" stroke-width="0.3"><path d="
M 0.00 1600.00 
L 1600.00 1600.00
L 1600.00 0.00
L 0.00 0.00
L 0.00 1600.00
M 446.00 531.00 
C 446.00 558.67 446.00 586.33 446.00 614.00
C 419.00 614.00 392.00 614.00 365.00 614.00
C 357.78 663.54 345.70 711.81 337.00 761.00
C 358.18 758.75 380.41 760.61 402.00 760.00
C 361.48 862.93 326.03 968.51 283.00 1070.00
C 283.05 1044.61 290.24 1018.71 293.99 992.99 C 297.74 967.27 302.85 941.78 307.00 916.00 C 311.14 890.22 317.21 864.21 320.00 838.00
C 304.33 838.00 288.67 838.00 273.00 838.00
C 285.42 763.12 301.05 689.03 313.00 614.00
C 298.87 612.93 274.57 619.29 269.23 604.77 C 263.89 590.25 257.87 581.21 252.23 567.77 C 246.59 554.33 240.47 544.32 235.00 531.00
C 305.33 531.00 375.67 531.00 446.00 531.00
M 516.00 531.00 
C 516.00 607.00 516.00 683.00 516.00 759.00
C 556.67 759.00 597.33 759.00 638.00 759.00
C 638.12 767.79 637.85 776.17 638.00 785.00 C 638.15 793.83 637.71 803.13 638.00 812.00 C 638.29 820.87 637.37 829.09 638.00 838.00 C 638.63 846.91 652.47 842.07 660.00 843.00 C 667.53 843.93 679.10 842.30 687.00 843.00
C 687.00 918.33 687.00 993.67 687.00 1069.00
C 670.67 1069.00 654.33 1069.00 638.00 1069.00
C 638.00 993.67 638.00 918.33 638.00 843.00
C 597.34 843.00 556.66 843.00 516.00 843.00
C 516.00 918.33 516.00 993.67 516.00 1069.00
C 500.00 1069.00 484.00 1069.00 468.00 1069.00
C 468.00 889.66 468.00 710.34 468.00 531.00
C 484.00 531.00 500.00 531.00 516.00 531.00
M 687.00 531.00 
C 687.00 606.67 687.00 682.33 687.00 758.00
C 672.60 758.97 662.86 756.71 648.00 758.00 C 633.14 759.29 638.42 741.30 638.00 729.00 C 637.58 716.70 638.19 701.77 638.00 689.00 C 637.81 676.23 638.09 663.00 638.00 650.00 C 637.91 637.00 638.04 623.10 638.00 610.00 C 637.96 596.90 638.02 584.16 638.00 571.00 C 637.98 557.84 638.02 544.20 638.00 531.00
C 654.33 531.00 670.67 531.00 687.00 531.00
M 708.00 1069.00 
C 714.26 1052.02 723.38 1034.27 730.92 1017.92 C 738.47 1001.58 748.61 979.79 770.00 983.00 C 791.39 986.21 812.58 980.08 827.25 966.25 C 841.92 952.41 849.82 941.25 858.31 923.31 C 866.79 905.36 872.65 887.52 876.33 867.33 C 880.01 847.14 883.22 821.45 883.00 800.00 C 882.78 778.55 880.03 753.00 876.02 732.98 C 872.02 712.95 866.17 694.75 858.07 676.93 C 849.98 659.10 841.89 647.40 827.25 633.75 C 812.61 620.10 792.40 612.42 771.00 616.00 C 749.60 619.58 737.94 599.19 730.70 582.31 C 723.45 565.42 713.03 548.81 708.00 531.00
C 742.73 533.66 792.50 524.06 822.69 539.31 C 852.89 554.55 866.90 573.33 883.92 601.08 C 900.94 628.84 910.35 656.85 918.78 689.22 C 927.21 721.59 931.00 764.68 931.00 800.00 C 931.00 835.32 927.30 878.57 919.00 911.00 C 910.71 943.44 900.59 970.95 883.75 998.75 C 866.90 1026.54 852.32 1044.95 822.31 1060.31 C 792.29 1075.66 742.70 1066.65 708.00 1069.00
M 1073.00 635.00 
C 1067.04 612.86 1045.78 615.75 1027.00 615.00 C 1008.22 614.25 979.87 617.87 961.99 614.01 C 944.11 610.15 941.20 590.22 933.08 576.92 C 924.96 563.62 918.86 545.07 912.00 531.00
C 933.79 530.78 958.50 531.30 980.00 531.00 C 1001.50 530.70 1027.57 531.57 1048.00 531.00 C 1068.43 530.43 1081.33 539.86 1094.25 552.75 C 1107.17 565.64 1114.93 582.02 1102.23 595.23 C 1089.53 608.44 1086.36 623.82 1073.00 635.00
M 1364.00 1069.00 
C 1349.75 1068.65 1331.89 1069.46 1318.00 1069.00 C 1304.11 1068.54 1306.54 1049.89 1302.07 1038.93 C 1297.61 1027.97 1295.48 1014.17 1291.22 1002.78 C 1286.96 991.38 1285.01 978.63 1281.02 966.98 C 1277.04 955.32 1273.79 942.75 1270.07 930.93 C 1266.36 919.10 1263.37 907.21 1259.68 895.32 C 1255.99 883.44 1252.77 870.86 1249.02 858.98 C 1245.27 847.10 1241.73 835.81 1238.07 823.93 C 1234.41 812.05 1231.16 799.77 1227.00 788.00
C 1250.87 787.84 1285.18 790.53 1297.77 766.77 C 1310.36 743.01 1314.63 714.06 1312.00 688.00 C 1309.37 661.94 1306.65 638.26 1285.25 621.75 C 1263.84 605.24 1224.59 620.17 1199.00 615.00
C 1199.01 766.34 1198.99 917.66 1199.00 1069.00
C 1183.00 1069.00 1167.00 1069.00 1151.00 1069.00
C 1151.00 889.66 1151.00 710.34 1151.00 531.00
C 1167.27 530.73 1184.86 531.36 1201.00 531.00 C 1217.14 530.64 1236.43 531.67 1252.00 531.00 C 1267.57 530.33 1283.45 531.57 1295.74 538.26 C 1308.04 544.94 1314.98 551.02 1323.25 561.75 C 1331.52 572.49 1336.37 581.70 1341.77 594.23 C 1347.17 606.76 1350.02 619.87 1353.33 633.67 C 1356.63 647.47 1358.11 664.09 1359.00 679.00 C 1359.89 693.91 1360.57 713.22 1359.00 728.00 C 1357.43 742.78 1355.32 757.39 1352.07 771.07 C 1348.83 784.75 1345.61 797.71 1340.07 810.07 C 1334.54 822.44 1329.41 831.59 1321.25 842.25 C 1313.08 852.91 1300.45 857.94 1306.78 871.22 C 1313.10 884.51 1312.90 897.83 1317.98 911.02 C 1323.05 924.22 1325.13 937.44 1329.33 950.67 C 1333.53 963.90 1337.41 976.66 1340.98 990.02 C 1344.54 1003.39 1348.94 1016.00 1352.78 1029.22 C 1356.62 1042.45 1360.21 1055.77 1364.00 1069.00
M 1076.00 773.00 
C 1096.53 793.87 1107.98 815.24 1115.93 844.07 C 1123.88 872.91 1125.61 913.71 1121.07 944.07 C 1116.53 974.43 1111.01 1002.10 1093.75 1027.75 C 1076.48 1053.40 1057.69 1070.83 1024.00 1069.00 C 990.31 1067.17 946.60 1070.37 912.00 1069.00
C 918.49 1050.54 927.96 1036.03 935.77 1017.77 C 943.58 999.51 954.06 982.65 976.00 983.00 C 997.94 983.35 1027.68 986.95 1047.08 979.08 C 1066.47 971.20 1069.98 950.18 1074.98 931.98 C 1079.97 913.77 1076.76 883.94 1069.08 866.92 C 1061.39 849.91 1049.42 837.18 1032.77 828.23 C 1016.12 819.28 996.08 813.44 978.00 808.00
C 1002.91 762.41 1031.29 718.15 1057.00 673.00
C 1060.30 684.42 1071.48 687.66 1075.32 676.32 C 1079.16 664.99 1075.73 652.34 1082.75 643.75 C 1089.77 635.17 1093.63 630.01 1099.92 621.92 C 1106.20 613.83 1111.92 607.39 1117.00 599.00
C 1134.66 657.08 1123.70 732.78 1076.00 773.00
M 754.00 758.00 
C 754.00 762.67 754.00 767.33 754.00 772.00
C 732.00 772.00 710.00 772.00 688.00 772.00
C 688.00 767.67 688.00 763.33 688.00 759.00
C 710.21 759.47 732.04 758.52 754.00 758.00
M 779.00 794.00 
C 779.00 798.00 779.00 802.00 779.00 806.00
C 749.16 808.29 718.26 806.36 688.00 807.00
C 688.00 802.67 688.00 798.33 688.00 794.00
C 718.57 794.93 748.78 791.40 779.00 794.00
M 754.00 829.00 
C 754.00 833.33 754.00 837.67 754.00 842.00
C 732.00 842.00 710.00 842.00 688.00 842.00
C 688.00 837.67 688.00 833.33 688.00 829.00
C 710.00 829.00 732.00 829.00 754.00 829.00 Z"/>
</g>
<g fill="None" fill-opacity="0.0" stroke="#000000" stroke-opacity="1.00" stroke-width="0.3"><path d="
M 446.00 531.00 
C 375.67 531.00 305.33 531.00 235.00 531.00
C 240.47 544.32 246.59 554.33 252.23 567.77 C 257.87 581.21 263.89 590.25 269.23 604.77 C 274.57 619.29 298.87 612.93 313.00 614.00
C 301.05 689.03 285.42 763.12 273.00 838.00
C 288.67 838.00 304.33 838.00 320.00 838.00
C 317.21 864.21 311.14 890.22 307.00 916.00 C 302.85 941.78 297.74 967.27 293.99 992.99 C 290.24 1018.71 283.05 1044.61 283.00 1070.00
C 326.03 968.51 361.48 862.93 402.00 760.00
C 380.41 760.61 358.18 758.75 337.00 761.00
C 345.70 711.81 357.78 663.54 365.00 614.00
C 392.00 614.00 419.00 614.00 446.00 614.00
C 446.00 586.33 446.00 558.67 446.00 531.00 Z"/>
</g>
<g fill="None" fill-opacity="0.0" stroke="#000000" stroke-opacity="1.00" stroke-width="0.3"><path d="
M 516.00 531.00 
C 500.00 531.00 484.00 531.00 468.00 531.00
C 468.00 710.34 468.00 889.66 468.00 1069.00
C 484.00 1069.00 500.00 1069.00 516.00 1069.00
C 516.00 993.67 516.00 918.33 516.00 843.00
C 556.66 843.00 597.34 843.00 638.00 843.00
C 638.00 918.33 638.00 993.67 638.00 1069.00
C 654.33 1069.00 670.67 1069.00 687.00 1069.00
C 687.00 993.67 687.00 918.33 687.00 843.00
C 679.10 842.30 667.53 843.93 660.00 843.00 C 652.47 842.07 638.63 846.91 638.00 838.00 C 637.37 829.09 638.29 820.87 638.00 812.00 C 637.71 803.13 638.15 793.83 638.00 785.00 C 637.85 776.17 638.12 767.79 638.00 759.00
C 597.33 759.00 556.67 759.00 516.00 759.00
C 516.00 683.00 516.00 607.00 516.00 531.00 Z"/>
</g>
<g fill="None" fill-opacity="0.0" stroke="#000000" stroke-opacity="1.00" stroke-width="0.3"><path d="
M 687.00 531.00 
C 670.67 531.00 654.33 531.00 638.00 531.00
C 638.02 544.20 637.98 557.84 638.00 571.00 C 638.02 584.16 637.96 596.90 638.00 610.00 C 638.04 623.10 637.91 637.00 638.00 650.00 C 638.09 663.00 637.81 676.23 638.00 689.00 C 638.19 701.77 637.58 716.70 638.00 729.00 C 638.42 741.30 633.14 759.29 648.00 758.00 C 662.86 756.71 672.60 758.97 687.00 758.00
C 687.00 682.33 687.00 606.67 687.00 531.00 Z"/>
</g>
<g fill="None" fill-opacity="0.0" stroke="#000000" stroke-opacity="1.00" stroke-width="0.3"><path d="
M 708.00 1069.00 
C 742.70 1066.65 792.29 1075.66 822.31 1060.31 C 852.32 1044.95 866.90 1026.54 883.75 998.75 C 900.59 970.95 910.71 943.44 919.00 911.00 C 927.30 878.57 931.00 835.32 931.00 800.00 C 931.00 764.68 927.21 721.59 918.78 689.22 C 910.35 656.85 900.94 628.84 883.92 601.08 C 866.90 573.33 852.89 554.55 822.69 539.31 C 792.50 524.06 742.73 533.66 708.00 531.00
C 713.03 548.81 723.45 565.42 730.70 582.31 C 737.94 599.19 749.60 619.58 771.00 616.00 C 792.40 612.42 812.61 620.10 827.25 633.75 C 841.89 647.40 849.98 659.10 858.07 676.93 C 866.17 694.75 872.02 712.95 876.02 732.98 C 880.03 753.00 882.78 778.55 883.00 800.00 C 883.22 821.45 880.01 847.14 876.33 867.33 C 872.65 887.52 866.79 905.36 858.31 923.31 C 849.82 941.25 841.92 952.41 827.25 966.25 C 812.58 980.08 791.39 986.21 770.00 983.00 C 748.61 979.79 738.47 1001.58 730.92 1017.92 C 723.38 1034.27 714.26 1052.02 708.00 1069.00 Z"/>
</g>
<g fill="None" fill-opacity="0.0" stroke="#000000" stroke-opacity="1.00" stroke-width="0.3"><path d="
M 1073.00 635.00 
C 1086.36 623.82 1089.53 608.44 1102.23 595.23 C 1114.93 582.02 1107.17 565.64 1094.25 552.75 C 1081.33 539.86 1068.43 530.43 1048.00 531.00 C 1027.57 531.57 1001.50 530.70 980.00 531.00 C 958.50 531.30 933.79 530.78 912.00 531.00
C 918.86 545.07 924.96 563.62 933.08 576.92 C 941.20 590.22 944.11 610.15 961.99 614.01 C 979.87 617.87 1008.22 614.25 1027.00 615.00 C 1045.78 615.75 1067.04 612.86 1073.00 635.00 Z"/>
</g>
<g fill="None" fill-opacity="0.0" stroke="#000000" stroke-opacity="1.00" stroke-width="0.3"><path d="
M 1364.00 1069.00 
C 1360.21 1055.77 1356.62 1042.45 1352.78 1029.22 C 1348.94 1016.00 1344.54 1003.39 1340.98 990.02 C 1337.41 976.66 1333.53 963.90 1329.33 950.67 C 1325.13 937.44 1323.05 924.22 1317.98 911.02 C 1312.90 897.83 1313.10 884.51 1306.78 871.22 C 1300.45 857.94 1313.08 852.91 1321.25 842.25 C 1329.41 831.59 1334.54 822.44 1340.07 810.07 C 1345.61 797.71 1348.83 784.75 1352.07 771.07 C 1355.32 757.39 1357.43 742.78 1359.00 728.00 C 1360.57 713.22 1359.89 693.91 1359.00 679.00 C 1358.11 664.09 1356.63 647.47 1353.33 633.67 C 1350.02 619.87 1347.17 606.76 1341.77 594.23 C 1336.37 581.70 1331.52 572.49 1323.25 561.75 C 1314.98 551.02 1308.04 544.94 1295.74 538.26 C 1283.45 531.57 1267.57 530.33 1252.00 531.00 C 1236.43 531.67 1217.14 530.64 1201.00 531.00 C 1184.86 531.36 1167.27 530.73 1151.00 531.00
C 1151.00 710.34 1151.00 889.66 1151.00 1069.00
C 1167.00 1069.00 1183.00 1069.00 1199.00 1069.00
C 1198.99 917.66 1199.01 766.34 1199.00 615.00
C 1224.59 620.17 1263.84 605.24 1285.25 621.75 C 1306.65 638.26 1309.37 661.94 1312.00 688.00 C 1314.63 714.06 1310.36 743.01 1297.77 766.77 C 1285.18 790.53 1250.87 787.84 1227.00 788.00
C 1231.16 799.77 1234.41 812.05 1238.07 823.93 C 1241.73 835.81 1245.27 847.10 1249.02 858.98 C 1252.77 870.86 1255.99 883.44 1259.68 895.32 C 1263.37 907.21 1266.36 919.10 1270.07 930.93 C 1273.79 942.75 1277.04 955.32 1281.02 966.98 C 1285.01 978.63 1286.96 991.38 1291.22 1002.78 C 1295.48 1014.17 1297.61 1027.97 1302.07 1038.93 C 1306.54 1049.89 1304.11 1068.54 1318.00 1069.00 C 1331.89 1069.46 1349.75 1068.65 1364.00 1069.00 Z"/>
</g>
<g fill="None" fill-opacity="0.0" stroke="#000000" stroke-opacity="1.00" stroke-width="0.3"><path d="
M 1076.00 773.00 
C 1123.70 732.78 1134.66 657.08 1117.00 599.00
C 1111.92 607.39 1106.20 613.83 1099.92 621.92 C 1093.63 630.01 1089.77 635.17 1082.75 643.75 C 1075.73 652.34 1079.16 664.99 1075.32 676.32 C 1071.48 687.66 1060.30 684.42 1057.00 673.00
C 1031.29 718.15 1002.91 762.41 978.00 808.00
C 996.08 813.44 1016.12 819.28 1032.77 828.23 C 1049.42 837.18 1061.39 849.91 1069.08 866.92 C 1076.76 883.94 1079.97 913.77 1074.98 931.98 C 1069.98 950.18 1066.47 971.20 1047.08 979.08 C 1027.68 986.95 997.94 983.35 976.00 983.00 C 954.06 982.65 943.58 999.51 935.77 1017.77 C 927.96 1036.03 918.49 1050.54 912.00 1069.00
C 946.60 1070.37 990.31 1067.17 1024.00 1069.00 C 1057.69 1070.83 1076.48 1053.40 1093.75 1027.75 C 1111.01 1002.10 1116.53 974.43 1121.07 944.07 C 1125.61 913.71 1123.88 872.91 1115.93 844.07 C 1107.98 815.24 1096.53 793.87 1076.00 773.00 Z"/>
</g>
<g fill="None" fill-opacity="0.0" stroke="#000000" stroke-opacity="1.00" stroke-width="0.3"><path d="
M 754.00 758.00 
C 732.04 758.52 710.21 759.47 688.00 759.00
C 688.00 763.33 688.00 767.67 688.00 772.00
C 710.00 772.00 732.00 772.00 754.00 772.00
C 754.00 767.33 754.00 762.67 754.00 758.00 Z"/>
</g>
<g fill="None" fill-opacity="0.0" stroke="#000000" stroke-opacity="1.00" stroke-width="0.3"><path d="
M 779.00 794.00 
C 748.78 791.40 718.57 794.93 688.00 794.00
C 688.00 798.33 688.00 802.67 688.00 807.00
C 718.26 806.36 749.16 808.29 779.00 806.00
C 779.00 802.00 779.00 798.00 779.00 794.00 Z"/>
</g>
<g fill="None" fill-opacity="0.0" stroke="#000000" stroke-opacity="1.00" stroke-width="0.3"><path d="
M 754.00 829.00 
C 732.00 829.00 710.00 829.00 688.00 829.00
C 688.00 833.33 688.00 837.67 688.00 842.00
C 710.00 842.00 732.00 842.00 754.00 842.00
C 754.00 837.67 754.00 833.33 754.00 829.00 Z"/>
</g>
<g fill="#FFFFFF" fill-opacity="1.00" stroke="None">
<path d="
M 0.00 1600.00 
L 1600.00 1600.00
L 1600.00 0.00
L 0.00 0.00
L 0.00 1600.00
M 446.00 531.00 
C 446.00 558.67 446.00 586.33 446.00 614.00
C 419.00 614.00 392.00 614.00 365.00 614.00
C 357.78 663.54 345.70 711.81 337.00 761.00
C 358.18 758.75 380.41 760.61 402.00 760.00
C 361.48 862.93 326.03 968.51 283.00 1070.00
C 283.05 1044.61 290.24 1018.71 293.99 992.99 C 297.74 967.27 302.85 941.78 307.00 916.00 C 311.14 890.22 317.21 864.21 320.00 838.00
C 304.33 838.00 288.67 838.00 273.00 838.00
C 285.42 763.12 301.05 689.03 313.00 614.00
C 298.87 612.93 274.57 619.29 269.23 604.77 C 263.89 590.25 257.87 581.21 252.23 567.77 C 246.59 554.33 240.47 544.32 235.00 531.00
C 305.33 531.00 375.67 531.00 446.00 531.00
M 516.00 531.00 
C 516.00 607.00 516.00 683.00 516.00 759.00
C 556.67 759.00 597.33 759.00 638.00 759.00
C 638.12 767.79 637.85 776.17 638.00 785.00 C 638.15 793.83 637.71 803.13 638.00 812.00 C 638.29 820.87 637.37 829.09 638.00 838.00 C 638.63 846.91 652.47 842.07 660.00 843.00 C 667.53 843.93 679.10 842.30 687.00 843.00
C 687.00 918.33 687.00 993.67 687.00 1069.00
C 670.67 1069.00 654.33 1069.00 638.00 1069.00
C 638.00 993.67 638.00 918.33 638.00 843.00
C 597.34 843.00 556.66 843.00 516.00 843.00
C 516.00 918.33 516.00 993.67 516.00 1069.00
C 500.00 1069.00 484.00 1069.00 468.00 1069.00
C 468.00 889.66 468.00 710.34 468.00 531.00
C 484.00 531.00 500.00 531.00 516.00 531.00
M 687.00 531.00 
C 687.00 606.67 687.00 682.33 687.00 758.00
C 672.60 758.97 662.86 756.71 648.00 758.00 C 633.14 759.29 638.42 741.30 638.00 729.00 C 637.58 716.70 638.19 701.77 638.00 689.00 C 637.81 676.23 638.09 663.00 638.00 650.00 C 637.91 637.00 638.04 623.10 638.00 610.00 C 637.96 596.90 638.02 584.16 638.00 571.00 C 637.98 557.84 638.02 544.20 638.00 531.00
C 654.33 531.00 670.67 531.00 687.00 531.00
M 708.00 1069.00 
C 714.26 1052.02 723.38 1034.27 730.92 1017.92 C 738.47 1001.58 748.61 979.79 770.00 983.00 C 791.39 986.21 812.58 980.08 827.25 966.25 C 841.92 952.41 849.82 941.25 858.31 923.31 C 866.79 905.36 872.65 887.52 876.33 867.33 C 880.01 847.14 883.22 821.45 883.00 800.00 C 882.78 778.55 880.03 753.00 876.02 732.98 C 872.02 712.95 866.17 694.75 858.07 676.93 C 849.98 659.10 841.89 647.40 827.25 633.75 C 812.61 620.10 792.40 612.42 771.00 616.00 C 749.60 619.58 737.94 599.19 730.70 582.31 C 723.45 565.42 713.03 548.81 708.00 531.00
C 742.73 533.66 792.50 524.06 822.69 539.31 C 852.89 554.55 866.90 573.33 883.92 601.08 C 900.94 628.84 910.35 656.85 918.78 689.22 C 927.21 721.59 931.00 764.68 931.00 800.00 C 931.00 835.32 927.30 878.57 919.00 911.00 C 910.71 943.44 900.59 970.95 883.75 998.75 C 866.90 1026.54 852.32 1044.95 822.31 1060.31 C 792.29 1075.66 742.70 1066.65 708.00 1069.00
M 1073.00 635.00 
C 1067.04 612.86 1045.78 615.75 1027.00 615.00 C 1008.22 614.25 979.87 617.87 961.99 614.01 C 944.11 610.15 941.20 590.22 933.08 576.92 C 924.96 563.62 918.86 545.07 912.00 531.00
C 933.79 530.78 958.50 531.30 980.00 531.00 C 1001.50 530.70 1027.57 531.57 1048.00 531.00 C 1068.43 530.43 1081.33 539.86 1094.25 552.75 C 1107.17 565.64 1114.93 582.02 1102.23 595.23 C 1089.53 608.44 1086.36 623.82 1073.00 635.00
M 1364.00 1069.00 
C 1349.75 1068.65 1331.89 1069.46 1318.00 1069.00 C 1304.11 1068.54 1306.54 1049.89 1302.07 1038.93 C 1297.61 1027.97 1295.48 1014.17 1291.22 1002.78 C 1286.96 991.38 1285.01 978.63 1281.02 966.98 C 1277.04 955.32 1273.79 942.75 1270.07 930.93 C 1266.36 919.10 1263.37 907.21 1259.68 895.32 C 1255.99 883.44 1252.77 870.86 1249.02 858.98 C 1245.27 847.10 1241.73 835.81 1238.07 823.93 C 1234.41 812.05 1231.16 799.77 1227.00 788.00
C 1250.87 787.84 1285.18 790.53 1297.77 766.77 C 1310.36 743.01 1314.63 714.06 1312.00 688.00 C 1309.37 661.94 1306.65 638.26 1285.25 621.75 C 1263.84 605.24 1224.59 620.17 1199.00 615.00
C 1199.01 766.34 1198.99 917.66 1199.00 1069.00
C 1183.00 1069.00 1167.00 1069.00 1151.00 1069.00
C 1151.00 889.66 1151.00 710.34 1151.00 531.00
C 1167.27 530.73 1184.86 531.36 1201.00 531.00 C 1217.14 530.64 1236.43 531.67 1252.00 531.00 C 1267.57 530.33 1283.45 531.57 1295.74 538.26 C 1308.04 544.94 1314.98 551.02 1323.25 561.75 C 1331.52 572.49 1336.37 581.70 1341.77 594.23 C 1347.17 606.76 1350.02 619.87 1353.33 633.67 C 1356.63 647.47 1358.11 664.09 1359.00 679.00 C 1359.89 693.91 1360.57 713.22 1359.00 728.00 C 1357.43 742.78 1355.32 757.39 1352.07 771.07 C 1348.83 784.75 1345.61 797.71 1340.07 810.07 C 1334.54 822.44 1329.41 831.59 1321.25 842.25 C 1313.08 852.91 1300.45 857.94 1306.78 871.22 C 1313.10 884.51 1312.90 897.83 1317.98 911.02 C 1323.05 924.22 1325.13 937.44 1329.33 950.67 C 1333.53 963.90 1337.41 976.66 1340.98 990.02 C 1344.54 1003.39 1348.94 1016.00 1352.78 1029.22 C 1356.62 1042.45 1360.21 1055.77 1364.00 1069.00
M 1076.00 773.00 
C 1096.53 793.87 1107.98 815.24 1115.93 844.07 C 1123.88 872.91 1125.61 913.71 1121.07 944.07 C 1116.53 974.43 1111.01 1002.10 1093.75 1027.75 C 1076.48 1053.40 1057.69 1070.83 1024.00 1069.00 C 990.31 1067.17 946.60 1070.37 912.00 1069.00
C 918.49 1050.54 927.96 1036.03 935.77 1017.77 C 943.58 999.51 954.06 982.65 976.00 983.00 C 997.94 983.35 1027.68 986.95 1047.08 979.08 C 1066.47 971.20 1069.98 950.18 1074.98 931.98 C 1079.97 913.77 1076.76 883.94 1069.08 866.92 C 1061.39 849.91 1049.42 837.18 1032.77 828.23 C 1016.12 819.28 996.08 813.44 978.00 808.00
C 1002.91 762.41 1031.29 718.15 1057.00 673.00
C 1060.30 684.42 1071.48 687.66 1075.32 676.32 C 1079.16 664.99 1075.73 652.34 1082.75 643.75 C 1089.77 635.17 1093.63 630.01 1099.92 621.92 C 1106.20 613.83 1111.92 607.39 1117.00 599.00
C 1134.66 657.08 1123.70 732.78 1076.00 773.00
M 754.00 758.00 
C 754.00 762.67 754.00 767.33 754.00 772.00
C 732.00 772.00 710.00 772.00 688.00 772.00
C 688.00 767.67 688.00 763.33 688.00 759.00
C 710.21 759.47 732.04 758.52 754.00 758.00
M 779.00 794.00 
C 779.00 798.00 779.00 802.00 779.00 806.00
C 749.16 808.29 718.26 806.36 688.00 807.00
C 688.00 802.67 688.00 798.33 688.00 794.00
C 718.57 794.93 748.78 791.40 779.00 794.00
M 754.00 829.00 
C 754.00 833.33 754.00 837.67 754.00 842.00
C 732.00 842.00 710.00 842.00 688.00 842.00
C 688.00 837.67 688.00 833.33 688.00 829.00
C 710.00 829.00 732.00 829.00 754.00 829.00 Z"/>
</g>
<g fill="#000000" fill-opacity="1.00" stroke="None">
<path d="
M 446.00 531.00 
C 375.67 531.00 305.33 531.00 235.00 531.00
C 240.47 544.32 246.59 554.33 252.23 567.77 C 257.87 581.21 263.89 590.25 269.23 604.77 C 274.57 619.29 298.87 612.93 313.00 614.00
C 301.05 689.03 285.42 763.12 273.00 838.00
C 288.67 838.00 304.33 838.00 320.00 838.00
C 317.21 864.21 311.14 890.22 307.00 916.00 C 302.85 941.78 297.74 967.27 293.99 992.99 C 290.24 1018.71 283.05 1044.61 283.00 1070.00
C 326.03 968.51 361.48 862.93 402.00 760.00
C 380.41 760.61 358.18 758.75 337.00 761.00
C 345.70 711.81 357.78 663.54 365.00 614.00
C 392.00 614.00 419.00 614.00 446.00 614.00
C 446.00 586.33 446.00 558.67 446.00 531.00 Z"/>
</g>
<g fill="#000000" fill-opacity="1.00" stroke="None">
<path d="
M 516.00 531.00 
C 500.00 531.00 484.00 531.00 468.00 531.00
C 468.00 710.34 468.00 889.66 468.00 1069.00
C 484.00 1069.00 500.00 1069.00 516.00 1069.00
C 516.00 993.67 516.00 918.33 516.00 843.00
C 556.66 843.00 597.34 843.00 638.00 843.00
C 638.00 918.33 638.00 993.67 638.00 1069.00
C 654.33 1069.00 670.67 1069.00 687.00 1069.00
C 687.00 993.67 687.00 918.33 687.00 843.00
C 679.10 842.30 667.53 843.93 660.00 843.00 C 652.47 842.07 638.63 846.91 638.00 838.00 C 637.37 829.09 638.29 820.87 638.00 812.00 C 637.71 803.13 638.15 793.83 638.00 785.00 C 637.85 776.17 638.12 767.79 638.00 759.00
C 597.33 759.00 556.67 759.00 516.00 759.00
C 516.00 683.00 516.00 607.00 516.00 531.00 Z"/>
</g>
<g fill="#000000" fill-opacity="1.00" stroke="None">
<path d="
M 687.00 531.00 
C 670.67 531.00 654.33 531.00 638.00 531.00
C 638.02 544.20 637.98 557.84 638.00 571.00 C 638.02 584.16 637.96 596.90 638.00 610.00 C 638.04 623.10 637.91 637.00 638.00 650.00 C 638.09 663.00 637.81 676.23 638.00 689.00 C 638.19 701.77 637.58 716.70 638.00 729.00 C 638.42 741.30 633.14 759.29 648.00 758.00 C 662.86 756.71 672.60 758.97 687.00 758.00
C 687.00 682.33 687.00 606.67 687.00 531.00 Z"/>
</g>
<g fill="#000000" fill-opacity="1.00" stroke="None">
<path d="
M 708.00 1069.00 
C 742.70 1066.65 792.29 1075.66 822.31 1060.31 C 852.32 1044.95 866.90 1026.54 883.75 998.75 C 900.59 970.95 910.71 943.44 919.00 911.00 C 927.30 878.57 931.00 835.32 931.00 800.00 C 931.00 764.68 927.21 721.59 918.78 689.22 C 910.35 656.85 900.94 628.84 883.92 601.08 C 866.90 573.33 852.89 554.55 822.69 539.31 C 792.50 524.06 742.73 533.66 708.00 531.00
C 713.03 548.81 723.45 565.42 730.70 582.31 C 737.94 599.19 749.60 619.58 771.00 616.00 C 792.40 612.42 812.61 620.10 827.25 633.75 C 841.89 647.40 849.98 659.10 858.07 676.93 C 866.17 694.75 872.02 712.95 876.02 732.98 C 880.03 753.00 882.78 778.55 883.00 800.00 C 883.22 821.45 880.01 847.14 876.33 867.33 C 872.65 887.52 866.79 905.36 858.31 923.31 C 849.82 941.25 841.92 952.41 827.25 966.25 C 812.58 980.08 791.39 986.21 770.00 983.00 C 748.61 979.79 738.47 1001.58 730.92 1017.92 C 723.38 1034.27 714.26 1052.02 708.00 1069.00 Z"/>
</g>
<g fill="#000000" fill-opacity="1.00" stroke="None">
<path d="
M 1073.00 635.00 
C 1086.36 623.82 1089.53 608.44 1102.23 595.23 C 1114.93 582.02 1107.17 565.64 1094.25 552.75 C 1081.33 539.86 1068.43 530.43 1048.00 531.00 C 1027.57 531.57 1001.50 530.70 980.00 531.00 C 958.50 531.30 933.79 530.78 912.00 531.00
C 918.86 545.07 924.96 563.62 933.08 576.92 C 941.20 590.22 944.11 610.15 961.99 614.01 C 979.87 617.87 1008.22 614.25 1027.00 615.00 C 1045.78 615.75 1067.04 612.86 1073.00 635.00 Z"/>
</g>
<g fill="#000000" fill-opacity="1.00" stroke="None">
<path d="
M 1364.00 1069.00 
C 1360.21 1055.77 1356.62 1042.45 1352.78 1029.22 C 1348.94 1016.00 1344.54 1003.39 1340.98 990.02 C 1337.41 976.66 1333.53 963.90 1329.33 950.67 C 1325.13 937.44 1323.05 924.22 1317.98 911.02 C 1312.90 897.83 1313.10 884.51 1306.78 871.22 C 1300.45 857.94 1313.08 852.91 1321.25 842.25 C 1329.41 831.59 1334.54 822.44 1340.07 810.07 C 1345.61 797.71 1348.83 784.75 1352.07 771.07 C 1355.32 757.39 1357.43 742.78 1359.00 728.00 C 1360.57 713.22 1359.89 693.91 1359.00 679.00 C 1358.11 664.09 1356.63 647.47 1353.33 633.67 C 1350.02 619.87 1347.17 606.76 1341.77 594.23 C 1336.37 581.70 1331.52 572.49 1323.25 561.75 C 1314.98 551.02 1308.04 544.94 1295.74 538.26 C 1283.45 531.57 1267.57 530.33 1252.00 531.00 C 1236.43 531.67 1217.14 530.64 1201.00 531.00 C 1184.86 531.36 1167.27 530.73 1151.00 531.00
C 1151.00 710.34 1151.00 889.66 1151.00 1069.00
C 1167.00 1069.00 1183.00 1069.00 1199.00 1069.00
C 1198.99 917.66 1199.01 766.34 1199.00 615.00
C 1224.59 620.17 1263.84 605.24 1285.25 621.75 C 1306.65 638.26 1309.37 661.94 1312.00 688.00 C 1314.63 714.06 1310.36 743.01 1297.77 766.77 C 1285.18 790.53 1250.87 787.84 1227.00 788.00
C 1231.16 799.77 1234.41 812.05 1238.07 823.93 C 1241.73 835.81 1245.27 847.10 1249.02 858.98 C 1252.77 870.86 1255.99 883.44 1259.68 895.32 C 1263.37 907.21 1266.36 919.10 1270.07 930.93 C 1273.79 942.75 1277.04 955.32 1281.02 966.98 C 1285.01 978.63 1286.96 991.38 1291.22 1002.78 C 1295.48 1014.17 1297.61 1027.97 1302.07 1038.93 C 1306.54 1049.89 1304.11 1068.54 1318.00 1069.00 C 1331.89 1069.46 1349.75 1068.65 1364.00 1069.00 Z"/>
</g>
<g fill="#000000" fill-opacity="1.00" stroke="None">
<path d="
M 1076.00 773.00 
C 1123.70 732.78 1134.66 657.08 1117.00 599.00
C 1111.92 607.39 1106.20 613.83 1099.92 621.92 C 1093.63 630.01 1089.77 635.17 1082.75 643.75 C 1075.73 652.34 1079.16 664.99 1075.32 676.32 C 1071.48 687.66 1060.30 684.42 1057.00 673.00
C 1031.29 718.15 1002.91 762.41 978.00 808.00
C 996.08 813.44 1016.12 819.28 1032.77 828.23 C 1049.42 837.18 1061.39 849.91 1069.08 866.92 C 1076.76 883.94 1079.97 913.77 1074.98 931.98 C 1069.98 950.18 1066.47 971.20 1047.08 979.08 C 1027.68 986.95 997.94 983.35 976.00 983.00 C 954.06 982.65 943.58 999.51 935.77 1017.77 C 927.96 1036.03 918.49 1050.54 912.00 1069.00
C 946.60 1070.37 990.31 1067.17 1024.00 1069.00 C 1057.69 1070.83 1076.48 1053.40 1093.75 1027.75 C 1111.01 1002.10 1116.53 974.43 1121.07 944.07 C 1125.61 913.71 1123.88 872.91 1115.93 844.07 C 1107.98 815.24 1096.53 793.87 1076.00 773.00 Z"/>
</g>
<g fill="#000000" fill-opacity="1.00" stroke="None">
<path d="
M 754.00 758.00 
C 732.04 758.52 710.21 759.47 688.00 759.00
C 688.00 763.33 688.00 767.67 688.00 772.00
C 710.00 772.00 732.00 772.00 754.00 772.00
C 754.00 767.33 754.00 762.67 754.00 758.00 Z"/>
</g>
<g fill="#000000" fill-opacity="1.00" stroke="None">
<path d="
M 779.00 794.00 
C 748.78 791.40 718.57 794.93 688.00 794.00
C 688.00 798.33 688.00 802.67 688.00 807.00
C 718.26 806.36 749.16 808.29 779.00 806.00
C 779.00 802.00 779.00 798.00 779.00 794.00 Z"/>
</g>
<g fill="#000000" fill-opacity="1.00" stroke="None">
<path d="
M 754.00 829.00 
C 732.00 829.00 710.00 829.00 688.00 829.00
C 688.00 833.33 688.00 837.67 688.00 842.00
C 710.00 842.00 732.00 842.00 754.00 842.00
C 754.00 837.67 754.00 833.33 754.00 829.00 Z"/>
</g>
</svg>